<svg x="0" y="0" width="300" height="400" viewBox="0, 0, 300, 400" xmlns="http://www.w3.org/2000/svg">
<path d="M 69.23 236.913 C 73.394 238.949 80.57 242.234 87.667 248  C 98.333 256.667  99.877 272.283   117 279.333  Q 128.333 284 135.367 283.327 Q 146.338 279.313 151.356 282.002 C 157.424 285.255 160.303 292.054 158.473 298.686 C 156.439 306.059 147.397 309.103 141.64 309.103 C 127.629 309.103 120.949 305.77 115.228 301.578 C 110.928 298.427 107.169 294.79 101.245 291.718 C 92.759 287.318 84.271 285.559 74.655 286.093 C 60.849 286.86 59.315 293.507 57.88 292.523 Q 64.269 279.971 66.392 272.663 Q 69.933 260.478 69.23 236.913 Z" fill="white" stroke="black" stroke-width="2"/>
</svg>
