<svg x="0" y="0" width="300" height="300" viewBox="0, 0, 300, 300" xmlns="http://www.w3.org/2000/svg">
<title>lobule_crus_i</title>
<path d="M 69.23 113.775 C 73.721 115.333 86.5 115.988 103.21 111.073 C  115.537 107.448   122.967 100.677 130.732 93.544  Q 144.821 80.602 159.238 51.277 Q 163.364 45.964 170.683 47.428 C 185.842 50.46 195.291 64.14 201 76.875 C 207.547 91.481 216.067 107.86 214.25 124 Q 213.479 130.846 205.25 131.5 Q 185.374 133.842 170.344 133.842 C 155.671 133.842 127.758 127.758 101.634 129.189 C 90.189 129.816 72.647 136.347 66.742 136.347 Q 71.154 132.519 71.701 129.606 Q 72.722 124.156 69.23 113.775 Z" fill="white" stroke="black" stroke-width="2"/>
</svg>

