<svg x="0" y="0" width="300" height="300" viewBox="0, 0, 300, 300" xmlns="http://www.w3.org/2000/svg">
<title>lobule_ix</title>
<path d="M 72.634 207.973  C 83.698 207.933 90.046 205.367 97.126 205.367 C 116.71 205.367  118.984 208.214  128.354 213.836 C 138.354 219.836  143.133 224.843  147.409 236.066 Q 152.742 250.066  160.333 256.667 Q 157.321 259.803 155.446 261.549 C 151.696 265.042 145.127 265.528 142.663 268.196 Q 138.086 273.153 136.016 283.025 Q 128.333 284 117 279.333 C 99.877 272.283 98.333 256.667 87.667 248 C 80.57 242.234 73.394 238.949 69.23 236.913 Q 71.774 231.783  72.63 228.808  Q 74.682 221.68 72.634 207.973 Z" fill="white" stroke="black" stroke-width="2"/>
</svg>
