<svg x="0" y="0" width="300" height="300" viewBox="0, 0, 300, 300" xmlns="http://www.w3.org/2000/svg">
<path d="M 68.095 160.306 Q 72.655 163.06 97.667 165.333 C 105 166 129.903 164.027  147 167.333 C 166.53 171.11  181 184.667  199.667 187.333 C 208.162 187.161 213.593 187.177 216.515 186.516 C 220.218 185.679 221.913 190.005 222.336 195.035 C 222.61 198.3 222.348 201.862 221.75 204.5 C 220.83 208.557 217.975 212.993 213.75 215.5 Q 209.833 217.824 201.25 217.5 L 195.331 216.551 Q 174.333 203.333 145 192.667 C 128.161 186.543 115.424 184.789 99 182.667 Q 78.746 180.05 68.662 180.735 Q 71.302 176.059 71.701 173.206 Q 72.37 168.411 68.095 160.306 Z" fill="white" stroke="black" stroke-width="2"/>
</svg>
