<svg x="0" y="0" width="300" height="300" viewBox="0, 0, 300, 300" xmlns="http://www.w3.org/2000/svg">
<title>lobule_v</title>
<path d="M 70.365 90.509 C 85.5 90.5 96.737 83.287 107.5 72.833 C  116.692 63.906 122.819 54.022 125.167 41.5  Q 128.167 25.5  128.5 11.167 Q 135.019 7.163 138.049 7.985 C 142.865 9.292 146.924 11.298 151.576 17.713 C 154.25 21.4 159.063 27.52 160.432 33.974 C 161.306 38.09 160.749 43.433 160.723 45.879 Q 160.702 47.769 159.561 51.106 Q 144.821 80.602 130.732 93.544 C 122.967 100.677 115.537 107.448 103.21 111.073 C 86.5 115.988 73.721 115.333 68.479 115.333 Q 71.619 107.83 72.041 104.4  Q 72.648 99.473 70.365 90.509 Z" fill="white" stroke="black" stroke-width="2"/>
</svg>


