<svg x="0" y="0" width="300" height="300" viewBox="0, 0, 300, 300" xmlns="http://www.w3.org/2000/svg">
<path d="M 68.662 193.786 Q 92.717 191.925  103.667 193.333 C 118.065 195.185  130.885 197.257  143 205.333 C 149.175 209.45  162.333 226  169.667 232.667 Q 171.927 234.722 177 237.333 Q 178.802 242.724 177.945 245.697 C 176.962 249.108 175.231 251.825 172.32 253.879 Q 168.626 256.486 160.048 255.924 Q 152.742 250.066 147.409 236.066 C 143.133 224.843 138.354 219.836 128.354 213.836 C 118.984 208.214 116.71 205.367 97.126 205.367 C 90.046 205.367 83.698 207.933 72.634 207.973 Q 73.638 203.404 73.105 200.959 Q 72.461 198.006 68.662 193.786 Z" fill="white" stroke="black" stroke-width="2"/>
</svg>
