<?xml version="1.0" encoding="utf-8" ?>
<svg baseProfile="full" font-size="12" height="400" stroke="black" stroke-width="2" version="1.1" width="600" xmlns="http://www.w3.org/2000/svg" xmlns:ev="http://www.w3.org/2001/xml-events" xmlns:xlink="http://www.w3.org/1999/xlink">
  <defs/>
    <path d="M 300.365, 140.509 C 315.500, 140.500 326.737, 133.287 337.500, 122.833 C 346.692, 113.906 352.819, 104.022 355.167, 91.500 Q 358.167, 75.500 358.500, 61.167 Q 365.019, 57.163 368.049, 57.985 C 372.865, 59.292 376.924, 61.298 381.576, 67.713 C 384.250, 71.400 389.063, 77.520 390.432, 83.974 C 391.306, 88.090 390.749, 93.433 390.723, 95.879 Q 393.364, 95.964 400.683, 97.428 C 415.842, 100.460 425.291, 114.140 431.000, 126.875 C 437.547, 141.481 446.067, 157.860 444.250, 174.000 Q 443.479, 180.846 435.250, 181.500 Q 441.827, 184.889 442.750, 187.000 C 446.250, 195.000 448.564, 211.972 447.250, 221.500 Q 445.250, 236.000 430.250, 236.500 C 438.162, 237.161 443.593, 237.177 446.515, 236.516 C 450.218, 235.679 451.913, 240.005 452.336, 245.035 C 452.610, 248.300 452.348, 251.862 451.750, 254.500 C 450.830, 258.557 447.975, 262.993 443.750, 265.500 Q 439.833, 267.824 431.250, 267.500 L 425.331, 266.551 Q 404.333, 253.333 375.000, 242.667 C 358.161, 236.543 345.424, 234.789 329.000, 232.667 Q 308.746, 230.050 298.662, 230.735 Q 301.302, 226.059 301.701, 223.206 Q 302.370, 218.411 298.095, 210.306 
Q 300.704, 205.610 301.019, 202.768 Q 301.701, 196.637 296.960, 186.473 Q 301.154, 182.519 301.701, 179.606 Q 302.722, 174.156 299.230, 163.775  Q 301.619, 157.830 302.041, 154.400 Q 302.648, 149.473 300.365, 140.509  Z " fill="rgb(214, 96, 77)"/>

    </svg>
