<?xml version="1.0" encoding="utf-8" ?>
<svg baseProfile="full" font-size="12" height="400" stroke="black" stroke-width="2" version="1.1" width="600" xmlns="http://www.w3.org/2000/svg" xmlns:ev="http://www.w3.org/2001/xml-events" xmlns:xlink="http://www.w3.org/1999/xlink">
  <defs/>
  <g>
    <path d="M 298.662, 230.735 Q 308.746, 230.050 329.000, 232.667 C 345.424, 234.789 358.161, 236.543 375.000, 242.667 Q 404.333, 253.333 424.333, 267.333 Q 425.741, 274.893 422.774, 278.823 Q 420.122, 282.335 407.945, 287.005 Q 408.802, 292.724 407.945, 295.697 C 406.962, 299.108 405.231, 301.825 402.320, 303.879 Q 398.626, 306.486 390.048, 305.924 Q 387.321, 309.803 385.446, 311.549 C 381.696, 315.042 375.127, 315.528 372.663, 318.196 Q 368.086, 323.153 366.016, 333.025 Q 358.333, 334.000 347.000, 329.333 C 329.877, 322.283 328.333, 306.667 317.667, 298.000 C 310.570, 292.234 303.394, 288.949 299.230, 286.913 Q 301.774, 281.783 302.630, 278.808 Q 304.682, 271.680 302.634, 257.973 Q 303.638, 253.404 303.105, 250.959 Q 302.461, 248.006 298.662, 243.786 Q 300.564, 240.080 300.679, 237.852 Q 300.815, 235.209 298.662, 230.735 Z" fill="rgb(164, 19, 40)"/>
  </g>
</svg>
