<?xml version="1.0" encoding="utf-8" ?>
<svg baseProfile="full" font-size="12" height="400" stroke="black" stroke-width="2" version="1.1" width="600" xmlns="http://www.w3.org/2000/svg" xmlns:ev="http://www.w3.org/2001/xml-events" xmlns:xlink="http://www.w3.org/1999/xlink">
  <defs/>
  <g>
    <path d="M 270.312, 70.869 Q 274.155, 64.277 278.375, 61.375 C 290.669, 52.918 307.091, 50.685 319.875, 56.125 Q 323.261, 57.566 328.125, 63.125 Q 331.406, 55.304 335.654, 54.348 C 338.351, 53.742 341.246, 53.606 343.176, 55.759 Q 344.213, 56.915 344.779, 59.782 Q 347.331, 57.258 349.165, 56.734 Q 354.215, 55.291 359.126, 60.434 Q 358.167, 75.500 355.167, 91.500 C 352.819, 104.022 346.692, 113.906 337.500, 122.833 C 326.737, 133.287 315.500, 140.500 299.500, 140.500 Q 289.500, 140.500 270.312, 140.500  Z" fill="rgb(248, 191, 163)"/>
  </g>
</svg>
