<?xml version="1.0" encoding="utf-8" ?>
<svg baseProfile="full" font-size="12" height="400" stroke="black" stroke-width="2" version="1.1" width="600" xmlns="http://www.w3.org/2000/svg" xmlns:ev="http://www.w3.org/2001/xml-events" xmlns:xlink="http://www.w3.org/1999/xlink">
  <defs/>
  <g>
    <path d="M 270.312, 140.500 Q 289.500, 140.500 300.365, 140.509 Q 302.648, 149.473 302.041, 154.400 Q 301.619, 157.830 299.230, 163.775 Q 302.722, 174.156 301.701, 179.606 Q 301.154, 182.519 296.960, 186.473 Q 301.701, 196.637 301.019, 202.768 Q 300.704, 205.610 298.095, 210.306 Q 302.370, 218.411 301.701, 223.206 Q 301.302, 226.059 298.662, 230.735 Q 300.815, 235.209 300.679, 237.852 Q 300.564, 240.080 298.662, 243.786 Q 302.461, 248.006 303.105, 250.959 Q 303.638, 253.404 302.634, 257.973 Q 304.682, 271.680 302.630, 278.808 Q 301.774, 281.783 299.230, 286.913 C 299.699, 302.623 299.198, 314.095 297.170, 322.885 C 296.030, 327.828 293.406, 337.904 287.880, 342.523 C 283.269, 346.377 274.064, 346.759 270.312, 346.575 C 266.560, 346.759 257.355, 346.377 252.744, 342.523 C 247.218, 337.904 244.594, 327.828 243.454, 322.885 C 241.426, 314.095 240.925, 302.623 241.394, 286.913 Q 238.850, 281.783 237.994, 278.808 Q 235.942, 271.680 237.990, 257.973
 Q 236.986, 253.404 237.519, 250.959 Q 238.163, 248.006 241.962, 243.786 Q 240.060, 240.080 239.945, 237.852 Q 239.809, 235.209 241.962, 230.735 Q 239.322, 226.059 238.923, 223.206 Q 238.254, 218.411 242.529, 210.306 Q 239.920, 205.610 239.605, 202.768 Q 238.923, 196.637 243.664, 186.473 Q 239.470, 182.519 238.923, 179.606 Q 237.902, 174.156 241.394, 163.775 Q 239.005, 157.830 238.583, 154.400 Q 237.976, 149.473 240.259, 140.509 Q 251.124, 140.500 270.312, 140.500 " fill="rgb(247, 246, 246)"/>
  </g>
</svg>
