<svg x="0" y="0" width="300" height="300" viewBox="0, 0, 300, 300" xmlns="http://www.w3.org/2000/svg">
<title>vermis_viii</title>
<path  d="M 40.312 115.333 Q 58.569 115.333 69.23 113.775 Q 72.722 124.156 71.701 129.606 Q 71.154 132.519 66.96 136.473 Q 71.701 146.637 71.019 152.768 Q 70.704 155.61 68.095 160.306 Q 72.37 168.411 71.701 173.206 Q 71.302 176.059 68.662 180.735 L 11.962,180.735 Q 9.322,176.059 8.923,173.206 Q 8.254,168.411 12.529,160.306  Q 9.920,155.610   9.605,152.768 Q 8.923,146.637 13.664,136.473  Q 9.470,132.519 8.923,129.606 Q 7.902,124.156 11.394,113.775 Q 22.055,115.333  40.312,115.333 Z" fill="white" stroke="black" stroke-width="2"/>
</svg>
