<?xml version="1.0" encoding="utf-8" ?>
<svg baseProfile="full" font-family="Helvetica" font-size="9" height="73" stroke="black" stroke-width="1" version="1.1" width="75" xmlns="http://www.w3.org/2000/svg" xmlns:ev="http://www.w3.org/2001/xml-events" xmlns:xlink="http://www.w3.org/1999/xlink">
  <defs/>
  <g>
    <path d="M 37.262, 4.174 Q 38.031, 2.855 38.875, 2.275 C 41.334, 0.584 44.618, 0.137 47.175, 1.225 Q 47.852, 1.513 48.825, 2.625 Q 49.481, 1.061 50.331, 0.870 C 50.870, 0.748 51.449, 0.721 51.835, 1.152 Q 52.043, 1.383 52.156, 1.956 Q 52.666, 1.452 53.033, 1.347 Q 54.043, 1.058 55.025, 2.087 Q 54.833, 5.100 54.233, 8.300 C 53.764, 10.804 52.538, 12.781 50.700, 14.567 C 48.547, 16.657 46.300, 18.100 43.100, 18.100 Q 41.100, 18.100 37.262, 18.100 Z" fill="rgb(0, 255, 0)"/>
  </g>
  <g>
    <path d="M 37.262, 4.174 Q 36.494, 2.855 35.650, 2.275 C 33.191, 0.584 29.907, 0.137 27.350, 1.225 Q 26.673, 1.513 25.700, 2.625 Q 25.044, 1.061 24.194, 0.870 C 23.655, 0.748 23.076, 0.721 22.690, 1.152 Q 22.482, 1.383 22.369, 1.956 Q 21.859, 1.452 21.492, 1.347 Q 20.482, 1.058 19.500, 2.087 Q 19.691, 5.100 20.291, 8.300 C 20.761, 10.804 21.986, 12.781 23.825, 14.567 C 25.977, 16.657 28.225, 18.100 31.425, 18.100 Q 33.425, 18.100 37.262, 18.100 Z" fill="rgb(0, 0, 255)"/>
  </g>
  <g>
    <path d="M 43.046, 47.383 C 43.879, 47.790 45.314, 48.447 46.733, 49.600 C 48.867, 51.333 49.175, 54.457 52.600, 55.867 Q 54.867, 56.800 56.273, 56.665 Q 58.468, 55.863 59.471, 56.400 C 60.685, 57.051 61.261, 58.411 60.895, 59.737 C 60.488, 61.212 58.679, 61.821 57.528, 61.821 C 54.726, 61.821 53.390, 61.154 52.246, 60.316 C 51.386, 59.685 50.634, 58.958 49.449, 58.344 C 47.752, 57.464 46.054, 57.112 44.131, 57.219 C 41.370, 57.372 41.063, 58.701 40.776, 58.505 C 41.881, 57.581 42.406, 55.566 42.634, 54.577 C 43.040, 52.819 43.140, 50.525 43.046, 47.383 Z" fill="rgb(0, 0, 0)"/>
  </g>
  <g>
    <path d="M 31.479, 47.383 C 30.646, 47.790 29.211, 48.447 27.791, 49.600 C 25.658, 51.333 25.349, 54.457 21.925, 55.867 Q 19.658, 56.800 18.251, 56.665 Q 16.057, 55.863 15.054, 56.400 C 13.840, 57.051 13.264, 58.411 13.630, 59.737 C 14.037, 61.212 15.845, 61.821 16.997, 61.821 C 19.799, 61.821 21.135, 61.154 22.279, 60.316 C 23.139, 59.685 23.891, 58.958 25.076, 58.344 C 26.773, 57.464 28.471, 57.112 30.394, 57.219 C 33.155, 57.372 33.462, 58.701 33.749, 58.505 C 32.644, 57.581 32.119, 55.566 31.891, 54.577 C 31.485, 52.819 31.385, 50.525 31.479, 47.383 Z" fill="rgb(255, 0, 0)"/>
  </g>
</svg>
