<?xml version="1.0" encoding="utf-8" ?>
<svg baseProfile="full" font-family="Helvetica" font-size="9" height="73" stroke="black" stroke-width="1" version="1.1" width="75" xmlns="http://www.w3.org/2000/svg" xmlns:ev="http://www.w3.org/2001/xml-events" xmlns:xlink="http://www.w3.org/1999/xlink">
  <defs/>
  <g>
    <path d="M 31.479, 47.383 C 30.646, 47.790 29.211, 48.447 27.791, 49.600 C 25.658, 51.333 25.349, 54.457 21.925, 55.867 Q 19.658, 56.800 18.251, 56.665 Q 16.057, 55.863 15.054, 56.400 C 13.840, 57.051 13.264, 58.411 13.630, 59.737 C 14.037, 61.212 15.845, 61.821 16.997, 61.821 C 19.799, 61.821 21.135, 61.154 22.279, 60.316 C 23.139, 59.685 23.891, 58.958 25.076, 58.344 C 26.773, 57.464 28.471, 57.112 30.394, 57.219 C 33.155, 57.372 33.462, 58.701 33.749, 58.505 C 32.644, 57.581 32.119, 55.566 31.891, 54.577 C 31.485, 52.819 31.385, 50.525 31.479, 47.383 Z" fill="rgb(255, 151, 151)"/>
  </g>
  <g>
    <path d="M 43.046, 47.383 C 43.879, 47.790 45.314, 48.447 46.733, 49.600 C 48.867, 51.333 49.175, 54.457 52.600, 55.867 Q 54.867, 56.800 56.273, 56.665 Q 58.468, 55.863 59.471, 56.400 C 60.685, 57.051 61.261, 58.411 60.895, 59.737 C 60.488, 61.212 58.679, 61.821 57.528, 61.821 C 54.726, 61.821 53.390, 61.154 52.246, 60.316 C 51.386, 59.685 50.634, 58.958 49.449, 58.344 C 47.752, 57.464 46.054, 57.112 44.131, 57.219 C 41.370, 57.372 41.063, 58.701 40.776, 58.505 C 41.881, 57.581 42.406, 55.566 42.634, 54.577 C 43.040, 52.819 43.140, 50.525 43.046, 47.383 Z" fill="rgb(153, 103, 185)"/>
  </g>
</svg>
