<?xml version="1.0" encoding="utf-8" ?>
<svg baseProfile="full" font-family="Helvetica" font-size="9" height="256" stroke="black" stroke-width="1" version="1.1" width="256" xmlns="http://www.w3.org/2000/svg" xmlns:ev="http://www.w3.org/2001/xml-events" xmlns:xlink="http://www.w3.org/1999/xlink">
  <defs/>
  <g>
    <path d="M 128.555, 14.400 Q 131.207, 9.851 134.119, 7.849 C 142.602, 2.013 153.933, 0.473 162.754, 4.226 Q 165.090, 5.221 168.446, 9.056 Q 170.710, 3.660 173.641, 3.000 C 175.502, 2.582 177.500, 2.488 178.831, 3.974 Q 179.547, 4.771 179.938, 6.750 Q 181.698, 5.008 182.964, 4.646 Q 186.448, 3.651 189.837, 7.199 Q 189.175, 17.595 187.105, 28.635 C 185.485, 37.275 181.257, 44.095 174.915, 50.255 C 167.489, 57.468 159.735, 62.445 148.695, 62.445 Q 141.795, 62.445 128.555, 62.445 Z" fill="rgb(144, 255, 102)"/>
  </g>
  <g>
    <path d="M 128.555, 14.400 Q 125.904, 9.851 122.992, 7.849 C 114.509, 2.013 103.178, 0.473 94.357, 4.226 Q 92.020, 5.221 88.664, 9.056 Q 86.400, 3.660 83.469, 3.000 C 81.608, 2.582 79.611, 2.488 78.279, 3.974 Q 77.564, 4.771 77.173, 6.750 Q 75.412, 5.008 74.147, 4.646 Q 70.662, 3.651 67.274, 7.199 Q 67.935, 17.595 70.005, 28.635 C 71.625, 37.275 75.853, 44.095 82.196, 50.255 C 89.622, 57.468 97.376, 62.445 108.416, 62.445 Q 115.316, 62.445 128.555, 62.445 Z" fill="rgb(102, 255, 144)"/>
  </g>
  <g>
    <path d="M 149.292, 62.451 C 159.735, 62.445 167.489, 57.468 174.915, 50.255 C 181.257, 44.095 185.485, 37.275 187.105, 28.635 Q 189.175, 17.595 189.405, 7.705 Q 193.903, 4.942 195.994, 5.510 C 199.317, 6.411 202.118, 7.796 205.327, 12.222 C 207.172, 14.766 210.493, 18.989 211.438, 23.442 C 212.041, 26.282 211.657, 29.969 211.639, 31.657 Q 213.461, 31.715 218.511, 32.725 C 228.971, 34.817 235.491, 44.257 239.430, 53.044 C 243.947, 63.122 249.826, 74.423 248.572, 85.560 Q 248.041, 90.284 242.362, 90.735 Q 246.901, 93.073 247.537, 94.530 C 249.952, 100.050 251.549, 111.761 250.642, 118.335 Q 249.262, 128.340 238.912, 128.685 C 244.372, 129.141 248.119, 129.152 250.135, 128.696 C 252.690, 128.119 253.860, 131.103 254.152, 134.574 C 254.341, 136.827 254.160, 139.285 253.747, 141.105 C 253.113, 143.904 251.143, 146.965 248.227, 148.695 Q 245.525, 150.299 239.602, 150.075 L 235.518, 149.420 Q 221.030, 140.300 200.790, 132.940 C 189.171, 128.715 180.383, 127.504 169.050, 126.040 Q 155.075, 124.234 148.117, 124.707 Q 149.938, 121.481 150.214, 119.512 Q 150.675, 116.204 147.726, 110.611 Q 149.526, 107.371 149.743, 105.410 Q 150.214, 101.180 146.942, 94.166 Q 149.836, 91.438 150.214, 89.428 Q 150.918, 85.668 148.509, 78.505 Q 150.157, 74.403 150.448, 72.036 Q 150.867, 68.636 149.292, 62.451 Z" fill="rgb(163, 255, 83)"/>
  </g>
  <g>
    <path d="M 107.819, 62.451 C 97.376, 62.445 89.622, 57.468 82.196, 50.255 C 75.853, 44.095 71.625, 37.275 70.005, 28.635 Q 67.935, 17.595 67.706, 7.705 Q 63.207, 4.942 61.117, 5.510 C 57.794, 6.411 54.993, 7.796 51.783, 12.222 C 49.938, 14.766 46.617, 18.989 45.672, 23.442 C 45.069, 26.282 45.454, 29.969 45.472, 31.657 Q 43.649, 31.715 38.599, 32.725 C 28.140, 34.817 21.620, 44.257 17.681, 53.044 C 13.163, 63.122 7.284, 74.423 8.538, 85.560 Q 9.070, 90.284 14.748, 90.735 Q 10.210, 93.073 9.573, 94.530 C 7.158, 100.050 5.561, 111.761 6.468, 118.335 Q 7.848, 128.340 18.198, 128.685 C 12.739, 129.141 8.991, 129.152 6.975, 128.696 C 4.420, 128.119 3.251, 131.103 2.959, 134.574 C 2.770, 136.827 2.950, 139.285 3.363, 141.105 C 3.998, 143.904 5.968, 146.965 8.883, 148.695 Q 11.586, 150.299 17.508, 150.075 L 21.592, 149.420 Q 36.081, 140.300 56.321, 132.940 C 67.939, 128.715 76.728, 127.504 88.061, 126.040 Q 102.036, 124.234 108.994, 124.707 Q 107.172, 121.481 106.897, 119.512 Q 106.435, 116.204 109.385, 110.611 Q 107.585, 107.371 107.367, 105.410 Q 106.897, 101.180 110.168, 94.166 Q 107.274, 91.438 106.897, 89.428 Q 106.192, 85.668 108.602, 78.505 Q 106.953, 74.403 106.662, 72.036 Q 106.243, 68.636 107.819, 62.451 Z" fill="rgb(83, 255, 163)"/>
  </g>
  <g>
    <path d="M 148.117, 124.707 Q 155.075, 124.234 169.050, 126.040 C 180.383, 127.504 189.171, 128.715 200.790, 132.940 Q 221.030, 140.300 234.830, 149.960 Q 235.801, 155.176 233.754, 157.888 Q 231.924, 160.311 223.522, 163.533 Q 224.113, 167.480 223.522, 169.531 C 222.844, 171.885 221.649, 173.759 219.641, 175.177 Q 217.092, 176.975 211.173, 176.588 Q 209.291, 179.264 207.998, 180.469 C 205.410, 182.879 200.878, 183.214 199.177, 185.055 Q 196.019, 188.476 194.591, 195.287 Q 189.290, 195.960 181.470, 192.740 C 169.655, 187.875 168.590, 177.100 161.230, 171.120 C 156.333, 167.141 151.382, 164.875 148.509, 163.470 Q 150.264, 159.930 150.855, 157.878 Q 152.271, 152.959 150.857, 143.501 Q 151.550, 140.349 151.182, 138.662 Q 150.738, 136.624 148.117, 133.712 Q 149.429, 131.155 149.509, 129.618 Q 149.602, 127.794 148.117, 124.707 Z" fill="rgb(205, 255, 41)"/>
  </g>
  <g>
    <path d="M 108.994, 124.707 Q 102.036, 124.234 88.061, 126.040 C 76.728, 127.504 67.939, 128.715 56.321, 132.940 Q 36.081, 140.300 22.281, 149.960 Q 21.309, 155.176 23.357, 157.888 Q 25.186, 160.311 33.589, 163.533 Q 32.997, 167.480 33.589, 169.531 C 34.267, 171.885 35.461, 173.759 37.470, 175.177 Q 40.019, 176.975 45.937, 176.588 Q 47.819, 179.264 49.113, 180.469 C 51.700, 182.879 56.233, 183.214 57.933, 185.055 Q 61.091, 188.476 62.520, 195.287 Q 67.821, 195.960 75.641, 192.740 C 87.455, 187.875 88.521, 177.100 95.880, 171.120 C 100.777, 167.141 105.729, 164.875 108.602, 163.470 Q 106.847, 159.930 106.256, 157.878 Q 104.840, 152.959 106.253, 143.501 Q 105.560, 140.349 105.928, 138.662 Q 106.372, 136.624 108.994, 133.712 Q 107.681, 131.155 107.602, 129.618 Q 107.508, 127.794 108.994, 124.707 Z" fill="rgb(41, 255, 205)"/>
  </g>
  <g>
    <path d="M 148.509, 163.470 C 151.382, 164.875 156.333, 167.141 161.230, 171.120 C 168.590, 177.100 169.655, 187.875 181.470, 192.740 Q 189.290, 195.960 194.143, 195.496 Q 201.713, 192.726 205.176, 194.581 C 209.363, 196.826 211.349, 201.517 210.086, 206.093 C 208.683, 211.181 202.444, 213.281 198.472, 213.281 C 188.804, 213.281 184.195, 210.981 180.247, 208.089 C 177.280, 205.915 174.687, 203.405 170.599, 201.285 C 164.744, 198.249 158.887, 197.036 152.252, 197.404 C 142.726, 197.933 141.667, 202.520 140.677, 201.841 C 144.490, 198.654 146.301, 191.701 147.087, 188.291 C 148.487, 182.226 148.832, 174.310 148.509, 163.470 Z" fill="rgb(247, 244, 0)"/>
  </g>
  <g>
    <path d="M 108.602, 163.470 C 105.729, 164.875 100.777, 167.141 95.880, 171.120 C 88.521, 177.100 87.455, 187.875 75.641, 192.740 Q 67.821, 195.960 62.967, 195.496 Q 55.397, 192.726 51.935, 194.581 C 47.748, 196.826 45.761, 201.517 47.024, 206.093 C 48.428, 211.181 54.667, 213.281 58.639, 213.281 C 68.307, 213.281 72.916, 210.981 76.863, 208.089 C 79.830, 205.915 82.424, 203.405 86.512, 201.285 C 92.367, 198.249 98.224, 197.036 104.859, 197.404 C 114.385, 197.933 115.443, 202.520 116.433, 201.841 C 112.620, 198.654 110.810, 191.701 110.023, 188.291 C 108.624, 182.226 108.278, 174.310 108.602, 163.470 Z" fill="rgb(255, 222, 0)"/>
  </g>
  <g>
    <path d="M 128.555, 62.445 Q 141.795, 62.445 149.292, 62.451 Q 150.867, 68.636 150.448, 72.036 Q 150.157, 74.403 148.509, 78.505 Q 150.918, 85.668 150.214, 89.428 Q 149.836, 91.438 146.942, 94.166 Q 150.214, 101.180 149.743, 105.410 Q 149.526, 107.371 147.726, 110.611 Q 150.675, 116.204 150.214, 119.512 Q 149.938, 121.481 148.117, 124.707 Q 149.602, 127.794 149.509, 129.618 Q 149.429, 131.155 148.117, 133.712 Q 150.738, 136.624 151.182, 138.662 Q 151.550, 140.349 150.857, 143.501 Q 152.271, 152.959 150.855, 157.878 Q 150.264, 159.930 148.509, 163.470 C 148.832, 174.310 148.487, 182.226 147.087, 188.291 C 146.301, 191.701 144.490, 198.654 140.677, 201.841 C 137.496, 204.500 131.144, 204.764 128.555, 204.637 C 125.966, 204.764 119.615, 204.500 116.433, 201.841 C 112.620, 198.654 110.810, 191.701 110.023, 188.291 C 108.624, 182.226 108.278, 174.310 108.602, 163.470 Q 106.846, 159.930 106.256, 157.878 Q 104.840, 152.959 106.253, 143.501 Q 105.560, 140.349 105.928, 138.662 Q 106.372, 136.624 108.994, 133.712 Q 107.681, 131.155 107.602, 129.618 Q 107.508, 127.794 108.994, 124.707 Q 107.172, 121.481 106.897, 119.512 Q 106.435, 116.204 109.385, 110.611 Q 107.585, 107.371 107.367, 105.410 Q 106.897, 101.180 110.168, 94.166 Q 107.274, 91.438 106.897, 89.428 Q 106.192, 85.668 108.602, 78.505 Q 106.953, 74.403 106.662, 72.036 Q 106.243, 68.636 107.819, 62.451 Q 115.316, 62.445 128.555, 62.445 Z" fill="rgb(0, 176, 255)"/>
  </g>
  <g>
    <path d="M 118.886, 229.754 C 112.707, 223.896 95.342, 219.673 74.909, 219.673 C 49.307, 219.673 28.522, 226.303 28.522, 234.471 C 28.522, 242.638 49.307, 249.269 74.909, 249.269 C 95.721, 249.269 113.350, 244.888 119.218, 238.861 L 137.893, 238.861 C 143.762, 244.888 161.390, 249.269 182.202, 249.269 C 207.804, 249.269 228.589, 242.638 228.589, 234.471 C 228.589, 226.303 207.804, 219.673 182.202, 219.673 C 161.769, 219.673 144.404, 223.896 138.225, 229.754 L 118.886, 229.754 Z" fill="rgb(255, 174, 0)"/>
  </g>
</svg>
