<?xml version="1.0" encoding="utf-8" ?>
<svg baseProfile="full" font-family="Helvetica" font-size="16" height="250" stroke="black" stroke-width="5" version="1.1" width="400" xmlns="http://www.w3.org/2000/svg" xmlns:ev="http://www.w3.org/2001/xml-events" xmlns:xlink="http://www.w3.org/1999/xlink">
  <defs/>
  <g>
    <path d="M 111.787, 12.521 Q 114.093, 8.566 116.625, 6.825 C 124.001, 1.751 133.855, 0.411 141.525, 3.675 Q 143.557, 4.540 146.475, 7.875 Q 148.444, 3.182 150.992, 2.609 C 152.611, 2.245 154.348, 2.164 155.506, 3.455 Q 156.128, 4.149 156.467, 5.869 Q 157.999, 4.355 159.099, 4.040 Q 162.129, 3.175 165.076, 6.260 Q 164.500, 15.300 162.700, 24.900 C 161.291, 32.413 157.615, 38.344 152.100, 43.700 C 145.642, 49.972 138.900, 54.300 129.300, 54.300 Q 123.300, 54.300 111.787, 54.300 Z" fill="rgb(144, 255, 102)"/>
    <text alignment-baseline="middle" stroke="none" text-anchor="start" x="165.07559999999998" y="28.4544">Anterior</text>
    <text alignment-baseline="middle" stroke="none" text-anchor="middle" x="138.4314" y="28.4544">0.1</text>
  </g>
  <g>
    <path d="M 111.787, 12.521 Q 109.481, 8.566 106.949, 6.825 C 99.573, 1.751 89.720, 0.411 82.049, 3.675 Q 80.018, 4.540 77.099, 7.875 Q 75.131, 3.182 72.582, 2.609 C 70.964, 2.245 69.227, 2.164 68.069, 3.455 Q 67.447, 4.149 67.107, 5.869 Q 65.576, 4.355 64.475, 4.040 Q 61.445, 3.175 58.499, 6.260 Q 59.074, 15.300 60.874, 24.900 C 62.283, 32.413 65.959, 38.344 71.474, 43.700 C 77.932, 49.972 84.674, 54.300 94.274, 54.300 Q 100.274, 54.300 111.787, 54.300 Z" fill="rgb(102, 255, 144)"/>
    <text alignment-baseline="middle" stroke="none" text-anchor="middle" x="85.14300000000001" y="28.4544">-0.1</text>
  </g>
  <g>
    <path d="M 129.819, 54.305 C 138.900, 54.300 145.642, 49.972 152.100, 43.700 C 157.615, 38.344 161.291, 32.413 162.700, 24.900 Q 164.500, 15.300 164.700, 6.700 Q 168.611, 4.298 170.429, 4.791 C 173.319, 5.575 175.754, 6.779 178.546, 10.628 C 180.150, 12.840 183.038, 16.512 183.859, 20.384 C 184.384, 22.854 184.049, 26.060 184.034, 27.527 Q 185.618, 27.578 190.010, 28.457 C 199.105, 30.276 204.775, 38.484 208.200, 46.125 C 212.128, 54.889 217.240, 64.716 216.150, 74.400 Q 215.687, 78.508 210.750, 78.900 Q 214.696, 80.933 215.250, 82.200 C 217.350, 87.000 218.738, 97.183 217.950, 102.900 Q 216.750, 111.600 207.750, 111.900 C 212.497, 112.297 215.756, 112.306 217.509, 111.910 C 219.731, 111.407 220.748, 114.003 221.002, 117.021 C 221.166, 118.980 221.009, 121.117 220.650, 122.700 C 220.098, 125.134 218.385, 127.796 215.850, 129.300 Q 213.500, 130.694 208.350, 130.500 L 204.799, 129.931 Q 192.200, 122.000 174.600, 115.600 C 164.497, 111.926 156.854, 110.873 147.000, 109.600 Q 134.848, 108.030 128.797, 108.441 Q 130.381, 105.635 130.621, 103.924 Q 131.022, 101.047 128.457, 96.184 Q 130.022, 93.366 130.211, 91.661 Q 130.621, 87.982 127.776, 81.884 Q 130.292, 79.511 130.621, 77.764 Q 131.233, 74.494 129.138, 68.265 Q 130.571, 64.698 130.825, 62.640 Q 131.189, 59.684 129.819, 54.305 Z" fill="rgb(163, 255, 83)"/>
    <text alignment-baseline="middle" stroke="none" text-anchor="start" x="221.0016" y="67.6455">Superior Posterior</text>
    <text alignment-baseline="middle" stroke="none" text-anchor="middle" x="174.3888" y="67.6455">0.2</text>
  </g>
  <g>
    <path d="M 93.755, 54.305 C 84.674, 54.300 77.932, 49.972 71.474, 43.700 C 65.959, 38.344 62.283, 32.413 60.874, 24.900 Q 59.074, 15.300 58.874, 6.700 Q 54.963, 4.298 53.145, 4.791 C 50.255, 5.575 47.820, 6.779 45.029, 10.628 C 43.424, 12.840 40.537, 16.512 39.715, 20.384 C 39.191, 22.854 39.525, 26.060 39.541, 27.527 Q 37.956, 27.578 33.565, 28.457 C 24.469, 30.276 18.800, 38.484 15.374, 46.125 C 11.446, 54.889 6.334, 64.716 7.424, 74.400 Q 7.887, 78.508 12.824, 78.900 Q 8.878, 80.933 8.324, 82.200 C 6.224, 87.000 4.836, 97.183 5.624, 102.900 Q 6.824, 111.600 15.824, 111.900 C 11.077, 112.297 7.819, 112.306 6.065, 111.910 C 3.844, 111.407 2.827, 114.003 2.573, 117.021 C 2.408, 118.980 2.566, 121.117 2.924, 122.700 C 3.476, 125.134 5.189, 127.796 7.724, 129.300 Q 10.075, 130.694 15.224, 130.500 L 18.776, 129.931 Q 31.375, 122.000 48.974, 115.600 C 59.078, 111.926 66.720, 110.873 76.574, 109.600 Q 88.727, 108.030 94.777, 108.441 Q 93.193, 105.635 92.954, 103.924 Q 92.552, 101.047 95.117, 96.184 Q 93.552, 93.366 93.363, 91.661 Q 92.954, 87.982 95.798, 81.884 Q 93.282, 79.511 92.954, 77.764 Q 92.341, 74.494 94.436, 68.265 Q 93.003, 64.698 92.750, 62.640 Q 92.386, 59.684 93.755, 54.305 Z" fill="rgb(83, 255, 163)"/>
    <text alignment-baseline="middle" stroke="none" text-anchor="middle" x="49.185600000000015" y="67.6455">-0.2</text>
  </g>
  <g>
    <path d="M 128.797, 108.441 Q 134.848, 108.030 147.000, 109.600 C 156.854, 110.873 164.497, 111.926 174.600, 115.600 Q 192.200, 122.000 204.200, 130.400 Q 205.045, 134.936 203.264, 137.294 Q 201.673, 139.401 194.367, 142.203 Q 194.881, 145.634 194.367, 147.418 C 193.777, 149.465 192.739, 151.095 190.992, 152.327 Q 188.776, 153.892 183.629, 153.554 Q 181.993, 155.882 180.868, 156.929 C 178.618, 159.025 174.676, 159.317 173.198, 160.918 Q 170.452, 163.892 169.210, 169.815 Q 164.600, 170.400 157.800, 167.600 C 147.526, 163.370 146.600, 154.000 140.200, 148.800 C 135.942, 145.340 131.636, 143.369 129.138, 142.148 Q 130.664, 139.070 131.178, 137.285 Q 132.409, 133.008 131.180, 124.784 Q 131.783, 122.042 131.463, 120.575 Q 131.077, 118.804 128.797, 116.272 Q 129.938, 114.048 130.007, 112.711 Q 130.089, 111.125 128.797, 108.441 Z" fill="rgb(205, 255, 41)"/>
    <text alignment-baseline="middle" stroke="none" text-anchor="start" x="204.1998" y="139.128">Inferior Posterior</text>
    <text alignment-baseline="middle" stroke="none" text-anchor="middle" x="166.49849999999998" y="139.128">0.4</text>
  </g>
  <g>
    <path d="M 94.777, 108.441 Q 88.727, 108.030 76.574, 109.600 C 66.720, 110.873 59.078, 111.926 48.974, 115.600 Q 31.375, 122.000 19.375, 130.400 Q 18.530, 134.936 20.310, 137.294 Q 21.901, 139.401 29.207, 142.203 Q 28.693, 145.634 29.207, 147.418 C 29.797, 149.465 30.836, 151.095 32.582, 152.327 Q 34.799, 153.892 39.946, 153.554 Q 41.582, 155.882 42.707, 156.929 C 44.957, 159.025 48.898, 159.317 50.377, 160.918 Q 53.123, 163.892 54.365, 169.815 Q 58.975, 170.400 65.774, 167.600 C 76.048, 163.370 76.975, 154.000 83.374, 148.800 C 87.632, 145.340 91.938, 143.369 94.436, 142.148 Q 92.910, 139.070 92.396, 137.285 Q 91.165, 133.008 92.394, 124.784 Q 91.792, 122.042 92.111, 120.575 Q 92.498, 118.804 94.777, 116.272 Q 93.636, 114.048 93.567, 112.711 Q 93.485, 111.125 94.777, 108.441 Z" fill="rgb(41, 255, 205)"/>
    <text alignment-baseline="middle" stroke="none" text-anchor="middle" x="57.07590000000001" y="139.128">-0.4</text>
  </g>
  <g>
    <path d="M 129.138, 142.148 C 131.636, 143.369 135.942, 145.340 140.200, 148.800 C 146.600, 154.000 147.526, 163.370 157.800, 167.600 Q 164.600, 170.400 168.820, 169.996 Q 175.403, 167.588 178.414, 169.201 C 182.054, 171.153 183.782, 175.232 182.684, 179.212 C 181.463, 183.635 176.038, 185.462 172.584, 185.462 C 164.177, 185.462 160.169, 183.462 156.737, 180.947 C 154.157, 179.056 151.901, 176.874 148.347, 175.031 C 143.255, 172.391 138.163, 171.335 132.393, 171.656 C 124.109, 172.116 123.189, 176.104 122.328, 175.514 C 125.644, 172.742 127.218, 166.697 127.902, 163.731 C 129.119, 158.457 129.419, 151.574 129.138, 142.148 Z" fill="rgb(247, 244, 0)"/>
    <text alignment-baseline="middle" stroke="none" text-anchor="start" x="182.6838" y="163.8048">X</text>
    <text alignment-baseline="middle" stroke="none" text-anchor="middle" x="152.5059" y="163.8048">0.6</text>
  </g>
  <g>
    <path d="M 94.436, 142.148 C 91.938, 143.369 87.632, 145.340 83.374, 148.800 C 76.975, 154.000 76.048, 163.370 65.774, 167.600 Q 58.975, 170.400 54.754, 169.996 Q 48.172, 167.588 45.161, 169.201 C 41.520, 171.153 39.793, 175.232 40.891, 179.212 C 42.111, 183.635 47.536, 185.462 50.990, 185.462 C 59.397, 185.462 63.405, 183.462 66.838, 180.947 C 69.418, 179.056 71.673, 176.874 75.227, 175.031 C 80.319, 172.391 85.412, 171.335 91.181, 171.656 C 99.465, 172.116 100.385, 176.104 101.246, 175.514 C 97.931, 172.742 96.356, 166.697 95.672, 163.731 C 94.456, 158.457 94.155, 151.574 94.436, 142.148 Z" fill="rgb(255, 222, 0)"/>
    <text alignment-baseline="middle" stroke="none" text-anchor="middle" x="71.0685" y="163.8048">0.7</text>
  </g>
  <g>
    <path d="M 111.787, 54.300 Q 123.300, 54.300 129.819, 54.305 Q 131.189, 59.684 130.825, 62.640 Q 130.571, 64.698 129.138, 68.265 Q 131.233, 74.494 130.621, 77.764 Q 130.292, 79.511 127.776, 81.884 Q 130.621, 87.982 130.211, 91.661 Q 130.022, 93.366 128.457, 96.184 Q 131.022, 101.047 130.621, 103.924 Q 130.381, 105.635 128.797, 108.441 Q 130.089, 111.125 130.007, 112.711 Q 129.938, 114.048 128.797, 116.272 Q 131.077, 118.804 131.463, 120.575 Q 131.783, 122.042 131.180, 124.784 Q 132.409, 133.008 131.178, 137.285 Q 130.664, 139.070 129.138, 142.148 C 129.419, 151.574 129.119, 158.457 127.902, 163.731 C 127.218, 166.697 125.644, 172.742 122.328, 175.514 C 119.561, 177.826 114.038, 178.055 111.787, 177.945 C 109.536, 178.055 104.013, 177.826 101.246, 175.514 C 97.931, 172.742 96.356, 166.697 95.672, 163.731 C 94.456, 158.457 94.155, 151.574 94.436, 142.148 Q 92.910, 139.070 92.396, 137.285 Q 91.165, 133.008 92.394, 124.784 Q 91.792, 122.042 92.111, 120.575 Q 92.498, 118.804 94.777, 116.272 Q 93.636, 114.048 93.567, 112.711 Q 93.485, 111.125 94.777, 108.441 Q 93.193, 105.635 92.954, 103.924 Q 92.552, 101.047 95.117, 96.184 Q 93.552, 93.366 93.363, 91.661 Q 92.954, 87.982 95.798, 81.884 Q 93.282, 79.511 92.954, 77.764 Q 92.341, 74.494 94.436, 68.265 Q 93.003, 64.698 92.750, 62.640 Q 92.386, 59.684 93.755, 54.305 Q 100.274, 54.300 111.787, 54.300 Z" fill="rgb(0, 176, 255)"/>
    <text alignment-baseline="middle" stroke="none" text-anchor="middle" x="111.7872" y="116.1225">-0.8</text>
  </g>
  <g>
    <path d="M 103.379, 199.786 C 98.006, 194.692 82.906, 191.020 65.138, 191.020 C 42.876, 191.020 24.802, 196.786 24.802, 203.888 C 24.802, 210.990 42.876, 216.756 65.138, 216.756 C 83.236, 216.756 98.565, 212.946 103.668, 207.705 L 119.907, 207.705 C 125.010, 212.946 140.339, 216.756 158.437, 216.756 C 180.699, 216.756 198.773, 210.990 198.773, 203.888 C 198.773, 196.786 180.699, 191.020 158.437, 191.020 C 140.669, 191.020 125.569, 194.692 120.196, 199.786 L 103.379, 199.786 Z" fill="rgb(255, 174, 0)"/>
    <text alignment-baseline="hanging" stroke="none" text-anchor="middle" x="111.7875" y="216.756">Corpus Medullare</text>
    <text alignment-baseline="middle" stroke="none" text-anchor="middle" x="111.7875" y="203.8878">0.9</text>
  </g>
</svg>
