<?xml version="1.0" encoding="utf-8" ?>
<svg baseProfile="full" font-family="Helvetica" font-size="9" height="73" stroke="black" stroke-width="1" version="1.1" width="75" xmlns="http://www.w3.org/2000/svg" xmlns:ev="http://www.w3.org/2001/xml-events" xmlns:xlink="http://www.w3.org/1999/xlink">
  <defs/>
  <g>
    <path d="M 34.460, 66.595 C 32.669, 64.897 27.635, 63.673 21.713, 63.673 C 14.292, 63.673 8.267, 65.595 8.267, 67.963 C 8.267, 70.330 14.292, 72.252 21.713, 72.252 C 27.745, 72.252 32.855, 70.982 34.556, 69.235 L 39.969, 69.235 C 41.670, 70.982 46.780, 72.252 52.812, 72.252 C 60.233, 72.252 66.258, 70.330 66.258, 67.963 C 66.258, 65.595 60.233, 63.673 52.812, 63.673 C 46.890, 63.673 41.856, 64.897 40.065, 66.595 L 34.460, 66.595 Z" fill="rgb(255, 255, 150)"/>
  </g>
  <g>
    <path d="M 37.262, 4.174 Q 36.494, 2.855 35.650, 2.275 C 33.191, 0.584 29.907, 0.137 27.350, 1.225 Q 26.673, 1.513 25.700, 2.625 Q 26.890, 5.272 27.810, 6.339 C 29.010, 7.732 30.479, 8.785 32.036, 9.341 Q 33.791, 9.968 37.262, 9.564 Z" fill="rgb(88, 95, 255)"/>
  </g>
  <g>
    <path d="M 37.262, 4.174 Q 38.031, 2.855 38.875, 2.275 C 41.334, 0.584 44.618, 0.137 47.175, 1.225 Q 47.852, 1.513 48.825, 2.625 Q 47.635, 5.272 46.715, 6.339 C 45.514, 7.732 44.046, 8.785 42.489, 9.341 Q 40.734, 9.968 37.262, 9.564 Z" fill="rgb(53, 55, 143)"/>
  </g>
  <g>
    <path d="M 37.262, 9.564 Q 33.791, 9.968 32.036, 9.341 C 30.479, 8.785 29.010, 7.732 27.810, 6.339 Q 26.890, 5.272 25.700, 2.625 Q 25.044, 1.061 24.194, 0.870 C 23.655, 0.748 23.076, 0.721 22.690, 1.152 Q 22.482, 1.383 22.369, 1.956 Q 22.717, 5.560 23.718, 7.451 C 24.365, 8.674 25.018, 9.591 26.053, 10.453 C 27.444, 11.612 28.930, 12.380 30.724, 12.455 Q 33.393, 12.566 37.262, 12.455 Z" fill="rgb(175, 52, 255)"/>
  </g>
  <g>
    <path d="M 37.262, 9.564 Q 40.734, 9.968 42.489, 9.341 C 44.046, 8.785 45.514, 7.732 46.715, 6.339 Q 47.635, 5.272 48.825, 2.625 Q 49.481, 1.061 50.331, 0.870 C 50.870, 0.748 51.449, 0.721 51.835, 1.152 Q 52.043, 1.383 52.156, 1.956 Q 51.808, 5.560 50.807, 7.451 C 50.160, 8.674 49.507, 9.591 48.472, 10.453 C 47.081, 11.612 45.595, 12.380 43.801, 12.455 Q 41.132, 12.566 37.262, 12.455 Z" fill="rgb(91, 33, 132)"/>
  </g>
  <g>
    <path d="M 37.262, 12.455 Q 33.393, 12.566 30.724, 12.455 C 28.930, 12.380 27.444, 11.612 26.053, 10.453 C 25.018, 9.591 24.365, 8.674 23.718, 7.451 Q 22.717, 5.560 22.369, 1.956 Q 21.859, 1.452 21.492, 1.347 Q 20.482, 1.058 19.500, 2.087 Q 19.691, 5.100 20.291, 8.300 C 20.761, 10.804 21.986, 12.781 23.825, 14.567 C 25.977, 16.657 28.225, 18.100 31.425, 18.100 Q 33.425, 18.100 37.262, 18.100 Z" fill="rgb(36, 140, 255)"/>
  </g>
  <g>
    <path d="M 37.262, 12.455 Q 41.132, 12.566 43.801, 12.455 C 45.595, 12.380 47.081, 11.612 48.472, 10.453 C 49.507, 9.591 50.160, 8.674 50.807, 7.451 Q 51.808, 5.560 52.156, 1.956 Q 52.666, 1.452 53.033, 1.347 Q 54.043, 1.058 55.025, 2.087 Q 54.833, 5.100 54.233, 8.300 C 53.764, 10.804 52.538, 12.781 50.700, 14.567 C 48.547, 16.657 46.300, 18.100 43.100, 18.100 Q 41.100, 18.100 37.262, 18.100 Z" fill="rgb(31, 91, 163)"/>
  </g>
  <g>
    <path d="M 37.262, 18.100 Q 41.100, 18.100 43.273, 18.102 Q 43.730, 19.895 43.608, 20.880 Q 43.524, 21.566 43.046, 22.755 Q 40.914, 23.067 37.262, 23.067 Q 33.611, 23.067 31.479, 22.755 Q 31.001, 21.566 30.917, 20.880 Q 30.795, 19.895 31.252, 18.102 Q 33.425, 18.100 37.262, 18.100 Z" fill="rgb(255, 190, 10)"/>
  </g>
  <g>
    <path d="M 31.252, 18.102 C 28.225, 18.100 25.977, 16.657 23.825, 14.567 C 21.986, 12.781 20.761, 10.804 20.291, 8.300 Q 19.691, 5.100 19.625, 2.233 Q 18.321, 1.433 17.715, 1.597 C 16.752, 1.858 15.940, 2.260 15.010, 3.543 C 14.475, 4.280 13.512, 5.504 13.238, 6.795 C 13.064, 7.618 13.175, 8.687 13.180, 9.176 Q 13.184, 9.554 13.413, 10.221 Q 16.361, 16.120 19.178, 18.709 C 20.731, 20.135 22.217, 21.490 24.683, 22.215 C 28.025, 23.198 30.581, 23.067 31.629, 23.067 Q 31.001, 21.566 30.917, 20.880 Q 30.795, 19.895 31.252, 18.102 Z" fill="rgb(252, 0, 146)"/>
  </g>
  <g>
    <path d="M 43.273, 18.102 C 46.300, 18.100 48.547, 16.657 50.700, 14.567 C 52.538, 12.781 53.764, 10.804 54.233, 8.300 Q 54.833, 5.100 54.900, 2.233 Q 56.204, 1.433 56.810, 1.597 C 57.773, 1.858 58.585, 2.260 59.515, 3.543 C 60.050, 4.280 61.013, 5.504 61.286, 6.795 C 61.461, 7.618 61.350, 8.687 61.345, 9.176 Q 61.340, 9.554 61.112, 10.221 Q 58.164, 16.120 55.346, 18.709 C 53.793, 20.135 52.307, 21.490 49.842, 22.215 C 46.500, 23.198 43.944, 23.067 42.896, 23.067 Q 43.524, 21.566 43.608, 20.880 Q 43.730, 19.895 43.273, 18.102 Z" fill="rgb(185, 0, 106)"/>
  </g>
  <g>
    <path d="M 37.262, 23.067 Q 40.914, 23.067 43.046, 22.755 Q 43.744, 24.831 43.540, 25.921 Q 43.431, 26.504 42.592, 27.295 Q 43.540, 29.327 43.404, 30.554 Q 43.341, 31.122 42.819, 32.061 Q 43.674, 33.682 43.540, 34.641 Q 43.460, 35.212 42.932, 36.147 L 31.592, 36.267 Q 31.064, 35.212 30.985, 34.641 Q 30.851, 33.682 31.706, 32.061 Q 31.184, 31.122 31.121, 30.554 Q 30.985, 29.327 31.933, 27.295 Q 31.094, 26.504 30.985, 25.921 Q 30.780, 24.831 31.479, 22.755 Q 33.611, 23.067 37.262, 23.067 Z" fill="rgb(102, 204, 255)"/>
  </g>
  <g>
    <path d="M 31.479, 22.755 C 30.581, 23.067 28.025, 23.198 24.683, 22.215 C 22.217, 21.490 20.731, 20.135 19.178, 18.709 Q 16.361, 16.120 13.477, 10.255 Q 12.652, 9.193 11.188, 9.486 C 8.156, 10.092 6.267, 12.828 5.125, 15.375 C 3.815, 18.296 2.111, 21.572 2.475, 24.800 Q 2.629, 26.169 4.275, 26.300 Q 8.250, 26.768 11.256, 26.768 C 14.191, 26.768 19.773, 25.552 24.998, 25.838 C 27.287, 25.963 30.795, 27.269 31.976, 27.269 Q 31.094, 26.504 30.985, 25.921 Q 30.780, 24.831 31.479, 22.755 Z" fill="rgb(255, 143, 13)"/>
  </g>
  <g>
    <path d="M 31.933, 27.295 C 30.795, 27.269 27.287, 25.963 24.998, 25.838 C 19.773, 25.552 14.191, 26.768 11.256, 26.768 Q 8.250, 26.768 4.275, 26.300 Q 2.959, 26.978 2.775, 27.400 C 2.075, 29.000 1.612, 32.394 1.875, 34.300 Q 2.275, 37.200 5.275, 37.300 C 9.125, 36.933 12.019, 34.222 15.925, 33.467 C 19.344, 32.805 24.325, 33.200 25.791, 33.067 Q 30.794, 32.612 31.706, 32.061 Z" fill="rgb(255, 1, 10)"/>
  </g>
  <g>
    <path d="M 31.706, 32.061 Q 30.794, 32.612 25.791, 33.067 C 24.325, 33.200 19.344, 32.805 15.925, 33.467 C 12.019, 34.222 9.125, 36.933 5.391, 37.467 C 3.692, 37.432 2.606, 37.435 2.022, 37.303 C 1.281, 37.136 0.942, 38.001 0.858, 39.007 C 0.803, 39.660 0.855, 40.372 0.975, 40.900 C 1.159, 41.711 1.730, 42.599 2.575, 43.100 Q 3.358, 43.565 5.075, 43.500 L 6.259, 43.310 Q 10.458, 40.667 16.325, 38.533 C 19.693, 37.309 22.240, 36.958 25.525, 36.533 Q 29.576, 36.010 31.592, 36.147 Q 31.064, 35.212 30.985, 34.641 Q 30.851, 33.682 31.706, 32.061 Z" fill="rgb(255, 203, 22)"/>
  </g>
  <g>
    <path d="M 43.046, 22.755 C 43.944, 23.067 46.500, 23.198 49.842, 22.215 C 52.307, 21.490 53.793, 20.135 55.346, 18.709 Q 58.164, 16.120 61.048, 10.255 Q 61.873, 9.193 63.337, 9.486 C 66.368, 10.092 68.258, 12.828 69.400, 15.375 C 70.709, 18.296 72.413, 21.572 72.050, 24.800 Q 71.896, 26.169 70.250, 26.300 Q 66.275, 26.768 63.269, 26.768 C 60.334, 26.768 54.752, 25.552 49.527, 25.838 C 47.238, 25.963 43.729, 27.269 42.548, 27.269 Q 43.431, 26.504 43.540, 25.921 Q 43.744, 24.831 43.046, 22.755 Z" fill="rgb(218, 108, 15)"/>
  </g>
  <g>
    <path d="M 42.592, 27.295 C 43.729, 27.269 47.238, 25.963 49.527, 25.838 C 54.752, 25.552 60.334, 26.768 63.269, 26.768 Q 66.275, 26.768 70.250, 26.300 Q 71.565, 26.978 71.750, 27.400 C 72.450, 29.000 72.913, 32.394 72.650, 34.300 Q 72.250, 37.200 69.250, 37.300 C 65.400, 36.933 62.506, 34.222 58.600, 33.467 C 55.181, 32.805 50.200, 33.200 48.733, 33.067 Q 43.731, 32.612 42.819, 32.061 Z" fill="rgb(193, 8, 12)"/>
  </g>
  <g>
    <path d="M 42.819, 32.061 Q 43.731, 32.612 48.733, 33.067 C 50.200, 33.200 55.181, 32.805 58.600, 33.467 C 62.506, 34.222 65.400, 36.933 69.133, 37.467 C 70.832, 37.432 71.919, 37.435 72.503, 37.303 C 73.244, 37.136 73.583, 38.001 73.667, 39.007 C 73.722, 39.660 73.670, 40.372 73.550, 40.900 C 73.366, 41.711 72.795, 42.599 71.950, 43.100 Q 71.167, 43.565 69.450, 43.500 L 68.266, 43.310 Q 64.067, 40.667 58.200, 38.533 C 54.832, 37.309 52.285, 36.958 49.000, 36.533 Q 44.949, 36.010 42.932, 36.147 Q 43.460, 35.212 43.540, 34.641 Q 43.674, 33.682 42.819, 32.061 Z" fill="rgb(202, 150, 15)"/>
  </g>
  <g>
    <path d="M 37.262, 36.267 L 42.932, 36.147 Q 43.363, 37.042 43.336, 37.570 Q 43.313, 38.016 42.932, 38.757 Q 43.692, 39.601 43.821, 40.192 Q 43.928, 40.681 43.727, 41.595 Q 41.945, 41.985 37.262, 41.733 Q 32.580, 41.985 30.798, 41.595 Q 30.597, 40.681 30.704, 40.192 Q 30.833, 39.601 31.592, 38.757 Q 31.212, 38.016 31.189, 37.570 Q 31.162, 37.042 31.592, 36.147 Z" fill="rgb(125, 43, 183)"/>
  </g>
  <g>
    <path d="M 31.592, 36.147 Q 29.576, 36.010 25.525, 36.533 C 22.240, 36.958 19.693, 37.309 16.325, 38.533 Q 10.458, 40.667 6.458, 43.467 Q 6.177, 44.979 6.770, 45.765 Q 7.300, 46.467 9.736, 47.401 Q 10.939, 46.944 11.391, 46.533 C 12.858, 45.200 15.490, 41.890 16.725, 41.067 C 19.148, 39.451 21.712, 39.037 24.591, 38.667 Q 26.781, 38.385 31.592, 38.757 Q 31.212, 38.016 31.189, 37.570 Q 31.162, 37.042 31.592, 36.147 Z" fill="rgb(13, 191, 108)"/>
  </g>
  <g>
    <path d="M 31.592, 38.757 Q 26.781, 38.385 24.591, 38.667 C 21.712, 39.037 19.148, 39.451 16.725, 41.067 C 15.490, 41.890 12.858, 45.200 11.391, 46.533 Q 10.939, 46.944 9.925, 47.467 Q 9.564, 48.545 9.736, 49.139 C 9.932, 49.822 10.279, 50.365 10.861, 50.776 Q 11.600, 51.297 13.315, 51.185 Q 14.776, 50.013 15.843, 47.213 C 16.698, 44.969 17.654, 43.967 19.654, 42.767 C 21.528, 41.643 21.983, 41.073 25.900, 41.073 C 27.316, 41.073 28.585, 41.587 30.798, 41.595 Q 30.597, 40.681 30.704, 40.192 Q 30.833, 39.601 31.592, 38.757 Z" fill="rgb(153, 238, 18)"/>
  </g>
  <g>
    <path d="M 42.932, 36.147 Q 44.949, 36.010 49.000, 36.533 C 52.285, 36.958 54.832, 37.309 58.200, 38.533 Q 64.067, 40.667 68.067, 43.467 Q 68.348, 44.979 67.755, 45.765 Q 67.224, 46.467 64.789, 47.401 Q 63.585, 46.944 63.133, 46.533 C 61.667, 45.200 59.035, 41.890 57.800, 41.067 C 55.377, 39.451 52.813, 39.037 49.933, 38.667 Q 47.743, 38.385 42.932, 38.757 Q 43.313, 38.016 43.336, 37.570 Q 43.363, 37.042 42.932, 36.147 Z" fill="rgb(16, 127, 72)"/>
  </g>
  <g>
    <path d="M 42.932, 38.757 Q 47.743, 38.385 49.933, 38.667 C 52.813, 39.037 55.377, 39.451 57.800, 41.067 C 59.035, 41.890 61.667, 45.200 63.133, 46.533 Q 63.585, 46.944 64.600, 47.467 Q 64.960, 48.545 64.789, 49.139 C 64.592, 49.822 64.246, 50.365 63.664, 50.776 Q 62.925, 51.297 61.210, 51.185 Q 59.748, 50.013 58.682, 47.213 C 57.827, 44.969 56.871, 43.967 54.871, 42.767 C 52.997, 41.643 52.542, 41.073 48.625, 41.073 C 47.209, 41.073 45.940, 41.587 43.727, 41.595 Q 43.928, 40.681 43.821, 40.192 Q 43.692, 39.601 42.932, 38.757 Z" fill="rgb(108, 168, 13)"/>
  </g>
  <g>
    <path d="M 37.262, 41.733 Q 41.945, 41.985 43.727, 41.595 Q 44.136, 44.336 43.726, 45.762 Q 43.555, 46.357 43.046, 47.383 Q 40.304, 46.250 37.262, 46.631 Q 34.221, 46.250 31.479, 47.383 Q 30.970, 46.357 30.799, 45.762 Q 30.388, 44.336 30.798, 41.595 Q 32.580, 41.985 37.262, 41.733 Z" fill="rgb(253, 74, 8)"/>
  </g>
  <g>
    <path d="M 30.798, 41.595 C 28.585, 41.587 27.316, 41.073 25.900, 41.073 C 21.983, 41.073 21.528, 41.643 19.654, 42.767 C 17.654, 43.967 16.698, 44.969 15.843, 47.213 Q 14.776, 50.013 13.258, 51.333 Q 13.861, 51.961 14.236, 52.310 C 14.986, 53.008 16.299, 53.106 16.792, 53.639 Q 17.708, 54.631 18.122, 56.605 Q 19.658, 56.800 21.925, 55.867 C 25.349, 54.457 25.658, 51.333 27.791, 49.600 C 29.211, 48.447 30.646, 47.790 31.479, 47.383 Q 30.970, 46.357 30.799, 45.762 Q 30.388, 44.336 30.798, 41.595 Z" fill="rgb(8, 237, 237)"/>
  </g>
  <g>
    <path d="M 43.727, 41.595 C 45.940, 41.587 47.209, 41.073 48.625, 41.073 C 52.542, 41.073 52.997, 41.643 54.871, 42.767 C 56.871, 43.967 57.827, 44.969 58.682, 47.213 Q 59.748, 50.013 61.267, 51.333 Q 60.664, 51.961 60.289, 52.310 C 59.539, 53.008 58.225, 53.106 57.733, 53.639 Q 56.817, 54.631 56.403, 56.605 Q 54.867, 56.800 52.600, 55.867 C 49.175, 54.457 48.867, 51.333 46.733, 49.600 C 45.314, 48.447 43.879, 47.790 43.046, 47.383 Q 43.555, 46.357 43.726, 45.762 Q 44.136, 44.336 43.727, 41.595 Z" fill="rgb(10, 160, 209)"/>
  </g>
  <g>
    <path d="M 37.262, 46.631 C 39.290, 46.377 41.218, 46.628 43.046, 47.383 C 43.140, 50.525 43.040, 52.819 42.634, 54.577 C 42.406, 55.566 41.881, 57.581 40.776, 58.505 C 39.854, 59.275 38.013, 59.352 37.262, 59.315 C 36.512, 59.352 34.671, 59.275 33.749, 58.505 C 32.644, 57.581 32.119, 55.566 31.891, 54.577 C 31.485, 52.819 31.385, 50.525 31.479, 47.383 C 33.307, 46.628 35.235, 46.377 37.262, 46.631 Z" fill="rgb(123, 194, 5)"/>
  </g>
  <g>
    <path d="M 31.479, 47.383 C 30.646, 47.790 29.211, 48.447 27.791, 49.600 C 25.658, 51.333 25.349, 54.457 21.925, 55.867 Q 19.658, 56.800 18.251, 56.665 Q 16.057, 55.863 15.054, 56.400 C 13.840, 57.051 13.264, 58.411 13.630, 59.737 C 14.037, 61.212 15.845, 61.821 16.997, 61.821 C 19.799, 61.821 21.135, 61.154 22.279, 60.316 C 23.139, 59.685 23.891, 58.958 25.076, 58.344 C 26.773, 57.464 28.471, 57.112 30.394, 57.219 C 33.155, 57.372 33.462, 58.701 33.749, 58.505 C 32.644, 57.581 32.119, 55.566 31.891, 54.577 C 31.485, 52.819 31.385, 50.525 31.479, 47.383 Z" fill="rgb(177, 131, 0)"/>
  </g>
  <g>
    <path d="M 43.046, 47.383 C 43.879, 47.790 45.314, 48.447 46.733, 49.600 C 48.867, 51.333 49.175, 54.457 52.600, 55.867 Q 54.867, 56.800 56.273, 56.665 Q 58.468, 55.863 59.471, 56.400 C 60.685, 57.051 61.261, 58.411 60.895, 59.737 C 60.488, 61.212 58.679, 61.821 57.528, 61.821 C 54.726, 61.821 53.390, 61.154 52.246, 60.316 C 51.386, 59.685 50.634, 58.958 49.449, 58.344 C 47.752, 57.464 46.054, 57.112 44.131, 57.219 C 41.370, 57.372 41.063, 58.701 40.776, 58.505 C 41.881, 57.581 42.406, 55.566 42.634, 54.577 C 43.040, 52.819 43.140, 50.525 43.046, 47.383 Z" fill="rgb(122, 83, 0)"/>
  </g>
</svg>
